<svg xmlns:xlink="http://www.w3.org/1999/xlink" width="400" xmlns="http://www.w3.org/2000/svg" height="400" id="screenshot-d762fdfd-38ca-808f-8002-a20aa14a6b49" viewBox="0 0 400 400" style="-webkit-print-color-adjust: exact;" fill="none" version="1.1"><g id="shape-d762fdfd-38ca-808f-8002-a20aa14a6b49" rx="0" ry="0"><g id="shape-d762fdfd-38ca-808f-8002-a20aa14a6b4a"><g class="fills" id="fills-d762fdfd-38ca-808f-8002-a20aa14a6b4a"><rect rx="0" ry="0" x="0" y="0" transform="matrix(1.000000, 0.000000, 0.000000, 1.000000, 0.000000, 0.000000)" width="400" height="400.0000000000001" style="fill: rgb(0, 0, 0); fill-opacity: 1;"/></g></g><g id="shape-d762fdfd-38ca-808f-8002-a20aa14a6b4b"><g class="fills" id="fills-d762fdfd-38ca-808f-8002-a20aa14a6b4b"><path rx="0" ry="0" d="M100.000,110.000C100.000,98.962,108.962,90.000,120.000,90.000L280.000,90.000C291.038,90.000,300.000,98.962,300.000,110.000L300.000,110.000C300.000,121.038,291.038,130.000,280.000,130.000L120.000,130.000C108.962,130.000,100.000,121.038,100.000,110.000ZL100.000,110.000ZM100.000,290.000C100.000,278.962,108.962,270.000,120.000,270.000L280.000,270.000C291.038,270.000,300.000,278.962,300.000,290.000L300.000,290.000C300.000,301.038,291.038,310.000,280.000,310.000L120.000,310.000C108.962,310.000,100.000,301.038,100.000,290.000ZL100.000,290.000ZM260.000,160.000C260.000,148.962,268.962,140.000,280.000,140.000L280.000,140.000C291.038,140.000,300.000,148.962,300.000,160.000L300.000,160.000C300.000,171.038,291.038,180.000,280.000,180.000L280.000,180.000C268.962,180.000,260.000,171.038,260.000,160.000ZL260.000,160.000ZM100.000,240.000C100.000,228.962,108.962,220.000,120.000,220.000L120.000,220.000C131.038,220.000,140.000,228.962,140.000,240.000L140.000,240.000C140.000,251.038,131.038,260.000,120.000,260.000L120.000,260.000C108.962,260.000,100.000,251.038,100.000,240.000ZL100.000,240.000ZM160.000,200.000C160.000,188.962,168.962,180.000,180.000,180.000L220.000,180.000C231.038,180.000,240.000,188.962,240.000,200.000L240.000,200.000C240.000,211.038,231.038,220.000,220.000,220.000L180.000,220.000C168.962,220.000,160.000,211.038,160.000,200.000ZL160.000,200.000Z" style="fill: rgb(255, 255, 255); fill-opacity: 1;"/></g></g></g></svg>